<svg width="200" height="201" viewBox="0 0 200 201" fill="none" xmlns="http://www.w3.org/2000/svg">
<path d="M16.6665 25.5H66.6665C75.5071 25.5 83.9855 29.0119 90.2367 35.2631C96.4879 41.5143 99.9998 49.9928 99.9998 58.8333V175.5C99.9998 168.87 97.3659 162.511 92.6775 157.822C87.9891 153.134 81.6302 150.5 74.9998 150.5H16.6665V25.5Z" stroke="black" stroke-width="2" stroke-linecap="round" stroke-linejoin="round"/>
<path d="M183.333 25.5H133.333C124.493 25.5 116.014 29.0119 109.763 35.2631C103.512 41.5143 100 49.9928 100 58.8333V175.5C100 168.87 102.634 162.511 107.322 157.822C112.011 153.134 118.37 150.5 125 150.5H183.333V25.5Z" stroke="black" stroke-width="2" stroke-linecap="round" stroke-linejoin="round"/>
</svg>
