<svg width="129" height="117" viewBox="0 0 129 117" fill="none" xmlns="http://www.w3.org/2000/svg">
<path d="M2 2.25H39.5C46.1304 2.25 52.4893 4.88392 57.1777 9.57233C61.8661 14.2607 64.5 20.6196 64.5 27.25V114.75C64.5 109.777 62.5246 105.008 59.0083 101.492C55.4919 97.9754 50.7228 96 45.75 96H2V2.25Z" stroke="#FFCC18" stroke-width="4" stroke-linecap="round" stroke-linejoin="round"/>
<path d="M127 2.25H89.5C82.8696 2.25 76.5107 4.88392 71.8223 9.57233C67.1339 14.2607 64.5 20.6196 64.5 27.25V114.75C64.5 109.777 66.4754 105.008 69.9917 101.492C73.5081 97.9754 78.2772 96 83.25 96H127V2.25Z" stroke="#FFCC18" stroke-width="4" stroke-linecap="round" stroke-linejoin="round"/>
</svg>
