<svg width="129" height="129" viewBox="0 0 129 129" fill="none" xmlns="http://www.w3.org/2000/svg">
<path d="M114.5 45.75H58.25C51.3464 45.75 45.75 51.3464 45.75 58.25V114.5C45.75 121.404 51.3464 127 58.25 127H114.5C121.404 127 127 121.404 127 114.5V58.25C127 51.3464 121.404 45.75 114.5 45.75Z" stroke="#FFCC18" stroke-width="4" stroke-linecap="round" stroke-linejoin="round"/>
<path d="M20.75 83.25H14.5C11.1848 83.25 8.00537 81.933 5.66116 79.5888C3.31696 77.2446 2 74.0652 2 70.75V14.5C2 11.1848 3.31696 8.00537 5.66116 5.66116C8.00537 3.31696 11.1848 2 14.5 2H70.75C74.0652 2 77.2446 3.31696 79.5888 5.66116C81.933 8.00537 83.25 11.1848 83.25 14.5V20.75" stroke="#FFCC18" stroke-width="4" stroke-linecap="round" stroke-linejoin="round"/>
</svg>
