<svg width="105" height="131" viewBox="0 0 105 131" fill="none" xmlns="http://www.w3.org/2000/svg">
<path d="M52.5 79C67.1148 79 79 67.1148 79 52.5C79 37.8852 67.1148 26 52.5 26C37.8852 26 26 37.8852 26 52.5C26 67.1148 37.8852 79 52.5 79ZM52.5 39.25C59.8074 39.25 65.75 45.1926 65.75 52.5C65.75 59.8074 59.8074 65.75 52.5 65.75C45.1926 65.75 39.25 59.8074 39.25 52.5C39.25 45.1926 45.1926 39.25 52.5 39.25Z" fill="#FFCC18"/>
<path d="M48.6938 129.782C49.8357 130.594 51.1678 131 52.5 131C53.8322 131 55.1643 130.594 56.3062 129.782C58.3012 128.373 105.19 94.582 104.999 52.4C104.999 23.508 81.4469 0 52.5 0C23.5531 0 0.000577741 23.5079 0.000577741 52.3673C-0.189733 94.582 46.6988 128.373 48.6938 129.782ZM52.5 13.1C74.2151 13.1 91.8746 30.7261 91.8746 52.4328C92.0124 81.5017 63.0786 107.603 52.5 116.164C41.9279 107.597 12.9876 81.4886 13.1254 52.4C13.1254 30.7261 30.7849 13.1 52.5 13.1Z" fill="#FFCC18"/>
</svg>
