<svg width="34" height="30" viewBox="0 0 34 30" fill="none" xmlns="http://www.w3.org/2000/svg">
<path d="M14.435 2.79L1.73 24C1.46805 24.4536 1.32945 24.9679 1.32798 25.4918C1.32652 26.0156 1.46224 26.5307 1.72164 26.9858C1.98104 27.4409 2.35509 27.8201 2.80656 28.0858C3.25804 28.3514 3.7712 28.4942 4.295 28.5H29.705C30.2288 28.4942 30.742 28.3514 31.1934 28.0858C31.6449 27.8201 32.019 27.4409 32.2784 26.9858C32.5378 26.5307 32.6735 26.0156 32.672 25.4918C32.6706 24.9679 32.532 24.4536 32.27 24L19.565 2.79C19.2976 2.34916 18.9211 1.98468 18.4718 1.73172C18.0225 1.47877 17.5156 1.34588 17 1.34588C16.4844 1.34588 15.9775 1.47877 15.5282 1.73172C15.0789 1.98468 14.7024 2.34916 14.435 2.79V2.79Z" stroke="white" stroke-width="2" stroke-linecap="round" stroke-linejoin="round"/>
<path d="M17 10.5V16.5" stroke="white" stroke-width="2" stroke-linecap="round" stroke-linejoin="round"/>
<path d="M17 22.5H17.0139" stroke="white" stroke-width="2" stroke-linecap="round" stroke-linejoin="round"/>
</svg>
