<svg width="220" height="219" viewBox="0 0 220 219" fill="none" xmlns="http://www.w3.org/2000/svg">
<path d="M110 62L175 87.9514L110 113.736L61.5 94.4393C58.5 96.9346 56.3333 100.927 56 105.419H57.1667C58.5 105.419 59.5 106.417 59.5 107.748V113.903C59.5 115.234 58.5 116.232 57.1667 116.232H56.3333L59.5 148.505C59.6667 149.836 58.6667 151 57.3333 151H51.5C50.1667 151 49.1667 149.836 49.1667 148.505L52.5 116.232H51.6667C50.3333 116.232 49.1667 115.234 49.1667 113.903V107.748C49.1667 106.417 50.3333 105.419 51.6667 105.419H53.5C53.8333 100.594 56 96.4355 59 93.4411L45 87.9514L110 62ZM108.167 118.394L110 119.06L111.833 118.394L147.5 104.088L150.167 133.533C150.333 135.529 149 136.361 147.167 135.529L133.167 128.376C131.333 127.378 128.333 127.544 126.667 128.542L113.167 136.194C111.5 137.193 108.5 137.193 106.833 136.194L93.3333 128.542C91.6667 127.544 88.6667 127.378 87 128.376L72.8333 135.529C71 136.527 69.6667 135.529 69.8333 133.533L72.5 104.088L108.167 118.394Z" fill="#FFCC18"/>
<path d="M37.4961 162.115C36.8146 159.075 37.1992 155.894 38.5854 153.104L38.9141 152.443C39.3566 151.552 40.5061 151.295 41.2864 151.911L41.9576 152.441C44.343 154.325 46.0079 156.972 46.673 159.938L47.5323 163.77C48.1953 166.727 46.9846 169.798 44.4898 171.518V171.518C44.3319 171.627 44.1359 171.668 43.9478 171.63V171.63C41.199 171.081 39.0319 168.964 38.4186 166.229L37.4961 162.115Z" fill="white"/>
<path d="M35.1972 165.956C32.7883 164.768 30.0442 164.445 27.4252 165.041L26.8043 165.182C25.9684 165.372 25.5192 166.283 25.8772 167.062L26.1852 167.732C27.2799 170.113 29.1603 172.046 31.5108 173.205L34.548 174.702C36.8913 175.858 39.7104 175.466 41.6581 173.725V173.725C41.7814 173.614 41.8553 173.458 41.862 173.293V173.293C41.9594 170.878 40.625 168.633 38.4574 167.564L35.1972 165.956Z" fill="white"/>
<path d="M50.68 173.032C50.0965 169.972 50.5832 166.805 52.0584 164.061L52.4082 163.411C52.879 162.535 54.0363 162.314 54.7964 162.955L55.4501 163.507C57.7738 165.466 59.3527 168.165 59.9221 171.151L60.6577 175.009C61.2253 177.986 59.9164 181.016 57.3677 182.655V182.655C57.2063 182.759 57.0091 182.794 56.8223 182.75V182.75C54.0926 182.113 51.9947 179.927 51.4696 177.174L50.68 173.032Z" fill="white"/>
<path d="M48.2587 176.798C45.8892 175.533 43.1569 175.122 40.5202 175.633L39.8951 175.754C39.0534 175.917 38.5751 176.814 38.908 177.604L39.1943 178.283C40.2118 180.698 42.0291 182.69 44.3412 183.924L47.3286 185.518C49.6336 186.749 52.4638 186.448 54.4665 184.77V184.77C54.5933 184.664 54.6721 184.51 54.6841 184.345V184.345C54.8592 181.935 53.5976 179.647 51.4655 178.509L48.2587 176.798Z" fill="white"/>
<path d="M187.219 155.082C187.938 152.051 187.593 148.865 186.241 146.059L185.92 145.393C185.489 144.498 184.343 144.226 183.555 144.832L182.877 145.354C180.469 147.208 178.771 149.835 178.07 152.792L177.164 156.614C176.464 159.562 177.637 162.648 180.111 164.399V164.399C180.267 164.509 180.463 164.553 180.651 164.517V164.517C183.407 164.002 185.6 161.912 186.246 159.184L187.219 155.082Z" fill="white"/>
<path d="M189.471 158.951C191.894 157.793 194.642 157.504 197.254 158.132L197.873 158.281C198.706 158.481 199.144 159.397 198.777 160.172L198.46 160.838C197.337 163.206 195.433 165.115 193.068 166.245L190.013 167.705C187.655 168.831 184.841 168.405 182.915 166.64V166.64C182.793 166.528 182.721 166.371 182.717 166.206V166.206C182.649 163.79 184.011 161.561 186.191 160.519L189.471 158.951Z" fill="white"/>
<path d="M174.811 169.75C175.444 166.7 175.009 163.525 173.579 160.758L173.24 160.102C172.784 159.219 171.63 158.979 170.86 159.608L170.197 160.148C167.842 162.069 166.219 164.742 165.601 167.718L164.802 171.564C164.186 174.531 165.445 177.582 167.966 179.263V179.263C168.126 179.369 168.323 179.407 168.51 179.366V179.366C171.25 178.774 173.383 176.623 173.953 173.878L174.811 169.75Z" fill="white"/>
<path d="M177.17 173.555C179.56 172.329 182.299 171.963 184.927 172.517L185.55 172.649C186.388 172.825 186.852 173.729 186.506 174.514L186.209 175.188C185.152 177.587 183.302 179.548 180.97 180.744L177.957 182.29C175.632 183.482 172.808 183.135 170.833 181.425V181.425C170.708 181.316 170.631 181.162 170.622 180.996V180.996C170.486 178.583 171.785 176.317 173.936 175.214L177.17 173.555Z" fill="white"/>
<path d="M27.4823 146.068C27.5611 142.954 28.7086 139.962 30.7322 137.594L31.2119 137.032C31.8578 136.276 33.0356 136.306 33.6424 137.094L34.1643 137.771C36.0195 140.179 36.99 143.151 36.9131 146.19L36.8138 150.116C36.7371 153.146 34.8153 155.829 31.9769 156.891V156.891C31.7972 156.958 31.5972 156.95 31.4238 156.867V156.867C28.8914 155.666 27.3048 153.085 27.3757 150.283L27.4823 146.068Z" fill="white"/>
<path d="M24.3175 149.234C22.2702 147.496 19.6872 146.515 17.0021 146.455L16.3655 146.441C15.5084 146.422 14.8509 147.196 15.0086 148.039L15.1443 148.763C15.6265 151.339 16.9799 153.671 18.9777 155.367L21.5589 157.559C23.5506 159.251 26.3801 159.557 28.6932 158.342V158.342C28.8396 158.265 28.9492 158.132 28.9959 157.973V157.973C29.6783 155.654 28.9306 153.152 27.0883 151.587L24.3175 149.234Z" fill="white"/>
<path d="M202.077 116.63C201.098 113.673 199.131 111.143 196.507 109.464L195.885 109.066C195.048 108.53 193.93 108.901 193.577 109.83L193.275 110.63C192.198 113.473 192.132 116.599 193.088 119.485L194.323 123.213C195.276 126.09 197.894 128.1 200.918 128.292V128.292C201.109 128.304 201.298 128.238 201.44 128.109V128.109C203.515 126.224 204.284 123.294 203.403 120.633L202.077 116.63Z" fill="white"/>
<path d="M206.025 118.742C207.48 116.484 209.666 114.795 212.219 113.958L212.824 113.76C213.638 113.493 214.492 114.043 214.586 114.895L214.667 115.628C214.953 118.233 214.335 120.858 212.915 123.061L211.081 125.908C209.666 128.104 207.048 129.219 204.481 128.727V128.727C204.319 128.696 204.175 128.6 204.085 128.462V128.462C202.759 126.441 202.748 123.829 204.056 121.798L206.025 118.742Z" fill="white"/>
<path d="M65.2975 184.137C63.8172 181.396 63.3246 178.23 63.9024 175.169L64.0394 174.443C64.2238 173.466 65.2604 172.906 66.1786 173.288L66.9683 173.616C69.7752 174.782 72.0955 176.879 73.54 179.553L75.4064 183.009C76.8464 185.675 76.5138 188.959 74.5791 191.291V191.291C74.4566 191.439 74.279 191.531 74.0877 191.546V191.546C71.293 191.763 68.633 190.313 67.3009 187.847L65.2975 184.137Z" fill="white"/>
<path d="M64.1264 188.458C61.4856 187.968 58.7567 188.401 56.3975 189.685L55.8381 189.989C55.0851 190.399 54.8997 191.398 55.4556 192.05L55.9338 192.612C57.6332 194.607 59.9671 195.957 62.5438 196.435L65.8733 197.053C68.4422 197.529 71.0494 196.388 72.4519 194.183V194.183C72.5407 194.044 72.5695 193.874 72.5311 193.713V193.713C71.97 191.362 70.0766 189.562 67.7004 189.121L64.1264 188.458Z" fill="white"/>
<path d="M158.406 178.278C159.553 175.382 159.669 172.179 158.734 169.208L158.512 168.503C158.214 167.555 157.118 167.121 156.252 167.608L155.506 168.027C152.856 169.516 150.8 171.872 149.681 174.698L148.235 178.35C147.119 181.167 147.837 184.389 150.033 186.477V186.477C150.172 186.609 150.36 186.68 150.551 186.672V186.672C153.352 186.558 155.823 184.804 156.854 182.198L158.406 178.278Z" fill="white"/>
<path d="M160.079 182.431C162.643 181.632 165.404 181.741 167.899 182.737L168.49 182.973C169.286 183.291 169.588 184.261 169.113 184.975L168.704 185.588C167.252 187.77 165.094 189.386 162.591 190.165L159.358 191.171C156.863 191.947 154.14 191.122 152.487 189.098V189.098C152.382 188.97 152.334 188.804 152.353 188.64V188.64C152.633 186.239 154.3 184.229 156.608 183.511L160.079 182.431Z" fill="white"/>
<path d="M82.709 191.754C80.4758 189.582 79.0575 186.708 78.6921 183.615L78.6055 182.881C78.4889 181.894 79.3103 181.049 80.3005 181.138L81.1523 181.215C84.1797 181.487 87.0213 182.792 89.2003 184.911L92.0159 187.65C94.1884 189.762 94.8545 192.995 93.707 195.8V195.8C93.6344 195.978 93.4926 196.119 93.3145 196.19V196.19C90.7131 197.234 87.7408 196.647 85.7313 194.693L82.709 191.754Z" fill="white"/>
<path d="M82.8856 196.227C80.2193 196.55 77.7453 197.781 75.8787 199.712L75.4362 200.17C74.8404 200.786 74.9627 201.795 75.6885 202.251L76.3127 202.643C78.5316 204.038 81.1627 204.627 83.7644 204.311L87.1261 203.904C89.7199 203.589 91.8656 201.72 92.5435 199.196V199.196C92.5864 199.037 92.563 198.866 92.4782 198.724V198.724C91.2388 196.649 88.8934 195.499 86.4942 195.79L82.8856 196.227Z" fill="white"/>
<path d="M143.119 188.244C144.416 185.411 144.699 182.219 143.921 179.203L143.737 178.488C143.488 177.525 142.417 177.034 141.526 177.475L140.76 177.855C138.036 179.203 135.858 181.448 134.593 184.211L132.958 187.782C131.696 190.537 132.244 193.793 134.328 195.993V195.993C134.46 196.132 134.643 196.212 134.835 196.215V196.215C137.638 196.247 140.197 194.625 141.364 192.077L143.119 188.244Z" fill="white"/>
<path d="M144.572 192.478C147.174 191.815 149.926 192.068 152.364 193.194L152.943 193.461C153.721 193.82 153.971 194.804 153.46 195.492L153.02 196.084C151.455 198.186 149.215 199.687 146.675 200.333L143.394 201.169C140.862 201.813 138.185 200.846 136.641 198.738V198.738C136.543 198.605 136.503 198.437 136.531 198.274V198.274C136.936 195.891 138.707 193.971 141.049 193.375L144.572 192.478Z" fill="white"/>
<path d="M99.1424 196.456C96.8211 194.378 95.285 191.566 94.7917 188.49L94.6748 187.761C94.5173 186.779 95.303 185.901 96.2961 185.949L97.1503 185.991C100.186 186.137 103.08 187.323 105.345 189.35L108.271 191.97C110.529 193.99 111.329 197.193 110.299 200.043V200.043C110.233 200.223 110.098 200.37 109.923 200.449V200.449C107.367 201.6 104.373 201.137 102.284 199.267L99.1424 196.456Z" fill="white"/>
<path d="M99.5042 200.918C96.8536 201.351 94.4327 202.683 92.6478 204.69L92.2246 205.166C91.6549 205.807 91.8188 206.809 92.5629 207.235L93.2029 207.601C95.4777 208.902 98.1309 209.382 100.717 208.959L104.059 208.412C106.638 207.991 108.704 206.034 109.277 203.484V203.484C109.313 203.323 109.283 203.153 109.192 203.015V203.015C107.868 200.993 105.477 199.941 103.092 200.331L99.5042 200.918Z" fill="white"/>
<path d="M127.944 199.512C130.96 200.291 133.617 202.083 135.468 204.588L135.907 205.182C136.498 205.982 136.204 207.123 135.299 207.536L134.522 207.892C131.758 209.157 128.643 209.433 125.7 208.673L121.897 207.692C118.963 206.934 116.781 204.457 116.387 201.453V201.453C116.362 201.262 116.415 201.069 116.534 200.919V200.919C118.276 198.723 121.148 197.758 123.862 198.459L127.944 199.512Z" fill="white"/>
<path d="M125.572 195.716C127.727 194.113 129.265 191.817 129.929 189.215L130.086 188.598C130.298 187.767 129.691 186.952 128.835 186.916L128.098 186.884C125.48 186.774 122.903 187.567 120.8 189.131L118.083 191.152C115.986 192.711 115.05 195.399 115.713 197.926V197.926C115.755 198.086 115.86 198.223 116.004 198.305V198.305C118.109 199.492 120.716 199.327 122.655 197.885L125.572 195.716Z" fill="white"/>
<path d="M19.6002 128.397C19.9816 125.305 21.4147 122.439 23.659 120.279L24.1911 119.767C24.9075 119.077 26.0767 119.221 26.6041 120.064L27.0576 120.789C28.6697 123.366 29.3465 126.419 28.9744 129.436L28.4935 133.334C28.1225 136.341 25.9488 138.826 23.0206 139.606V139.606C22.8352 139.655 22.6369 139.627 22.4724 139.529V139.529C20.0689 138.086 18.7409 135.363 19.084 132.581L19.6002 128.397Z" fill="white"/>
<path d="M16.1423 131.24C14.2738 129.311 11.7986 128.083 9.132 127.762L8.4998 127.686C7.64865 127.584 6.91896 128.291 6.99395 129.145L7.05846 129.879C7.28773 132.49 8.40797 134.942 10.2312 136.825L12.587 139.258C14.4046 141.135 17.191 141.715 19.6113 140.73V140.73C19.7645 140.668 19.8866 140.546 19.9485 140.393V140.393C20.8531 138.152 20.3525 135.588 18.6711 133.852L16.1423 131.24Z" fill="white"/>
<path d="M17.1868 110.782C18.8501 108.148 21.3686 106.167 24.3198 105.17L25.0195 104.933C25.9615 104.615 26.9576 105.244 27.0752 106.232L27.1763 107.081C27.5357 110.099 26.846 113.149 25.2231 115.719L23.126 119.04C21.508 121.602 18.4825 122.922 15.5012 122.379V122.379C15.3124 122.345 15.1449 122.235 15.0382 122.076V122.076C13.4792 119.746 13.4391 116.717 14.9358 114.347L17.1868 110.782Z" fill="white"/>
<path d="M12.8466 111.88C11.9792 109.338 10.2639 107.172 7.98861 105.744L7.44918 105.406C6.72293 104.951 5.76156 105.279 5.46525 106.083L5.2104 106.775C4.30455 109.234 4.2721 111.93 5.11848 114.411L6.21209 117.615C7.0559 120.088 9.32882 121.801 11.9378 121.943V121.943C12.1029 121.952 12.2654 121.893 12.3868 121.781V121.781C14.1607 120.14 14.8011 117.607 14.0205 115.32L12.8466 111.88Z" fill="white"/>
<path d="M196.863 138.19C196.848 135.075 195.761 132.06 193.786 129.651L193.318 129.08C192.688 128.311 191.51 128.317 190.887 129.092L190.351 129.759C188.448 132.129 187.417 135.081 187.432 138.12L187.451 142.048C187.467 145.078 189.333 147.8 192.15 148.919V148.919C192.328 148.99 192.528 148.986 192.703 148.907V148.907C195.259 147.757 196.898 145.209 196.884 142.406L196.863 138.19Z" fill="white"/>
<path d="M199.963 141.42C202.045 139.724 204.648 138.795 207.333 138.79L207.97 138.789C208.828 138.787 209.469 139.575 209.294 140.414L209.144 141.136C208.61 143.701 207.209 146.005 205.177 147.661L202.552 149.799C200.526 151.45 197.691 151.699 195.403 150.437V150.437C195.258 150.357 195.151 150.221 195.108 150.062V150.062C194.473 147.73 195.271 145.243 197.145 143.716L199.963 141.42Z" fill="white"/>
<path d="M17.4384 90.5764C19.9137 88.6852 22.9641 87.7029 26.0778 87.7944L26.816 87.816C27.8099 87.8452 28.5251 88.7814 28.292 89.748L28.0916 90.5793C27.3791 93.5342 25.672 96.1542 23.2566 97.9995L20.1358 100.384C17.7278 102.224 14.4321 102.409 11.8256 100.864V100.864C11.6606 100.766 11.5416 100.605 11.497 100.418V100.418C10.8453 97.692 11.861 94.8377 14.0884 93.1359L17.4384 90.5764Z" fill="white"/>
<path d="M12.9874 90.0963C13.058 87.4114 12.203 84.7839 10.5658 82.6547L10.1777 82.1499C9.65512 81.4703 8.63968 81.4436 8.08215 82.0949L7.60262 82.655C5.8982 84.6458 4.93036 87.1622 4.8615 89.7821L4.77253 93.1672C4.70388 95.7791 6.23939 98.1755 8.63628 99.2155V99.2155C8.78802 99.2813 8.96061 99.2831 9.11351 99.22V99.22C11.3475 98.2978 12.8284 96.146 12.8919 93.73L12.9874 90.0963Z" fill="white"/>
<path d="M203.4 96.7574C201.945 94.003 199.587 91.8329 196.721 90.6112L196.042 90.3215C195.127 89.9316 194.085 90.4819 193.892 91.4572L193.726 92.296C193.134 95.2775 193.587 98.3717 195.006 101.059L196.841 104.532C198.256 107.211 201.171 108.761 204.185 108.45V108.45C204.376 108.43 204.551 108.334 204.67 108.183V108.183C206.404 105.981 206.678 102.964 205.369 100.485L203.4 96.7574Z" fill="white"/>
<path d="M207.642 98.1866C208.703 95.7192 210.58 93.6918 212.959 92.4446L213.523 92.1489C214.282 91.7508 215.216 92.1521 215.449 92.977L215.65 93.6865C216.363 96.2083 216.187 98.8987 215.152 101.306L213.814 104.417C212.782 106.817 210.384 108.35 207.772 108.29V108.29C207.606 108.286 207.449 108.215 207.336 108.094V108.094C205.694 106.321 205.251 103.746 206.206 101.526L207.642 98.1866Z" fill="white"/>
<path d="M199.803 76.8068C197.615 74.5895 194.731 73.1922 191.635 72.8494L190.901 72.7681C189.913 72.6587 189.074 73.4862 189.171 74.4758L189.254 75.327C189.548 78.3523 190.874 81.1843 193.009 83.3479L195.767 86.1435C197.896 88.3004 201.133 88.943 203.93 87.7751V87.7751C204.107 87.7012 204.247 87.5584 204.317 87.3798V87.3798C205.342 84.7708 204.733 81.8029 202.765 79.8077L199.803 76.8068Z" fill="white"/>
<path d="M204.278 76.9509C204.582 74.2823 205.794 71.7994 207.712 69.9188L208.166 69.4729C208.778 68.8727 209.788 68.9876 210.249 69.7101L210.646 70.3315C212.057 72.5401 212.665 75.1668 212.368 77.7707L211.985 81.1353C211.69 83.7313 209.836 85.8906 207.317 86.5869V86.5869C207.158 86.631 206.987 86.6088 206.844 86.525V86.525C204.76 85.3008 203.593 82.9639 203.867 80.5625L204.278 76.9509Z" fill="white"/>
<path d="M191.985 59.6974C189.335 58.0603 186.202 57.3847 183.113 57.7837L182.381 57.8783C181.395 58.0056 180.775 59.008 181.103 59.9468L181.385 60.7542C182.386 63.6241 184.344 66.0623 186.93 67.6597L190.271 69.7236C192.85 71.3161 196.148 71.1748 198.588 69.3788V69.3788C198.743 69.2651 198.845 69.0932 198.871 68.9031V68.9031C199.25 66.1257 197.957 63.3859 195.572 61.9129L191.985 59.6974Z" fill="white"/>
<path d="M196.367 58.7792C196.031 56.1145 196.622 53.4153 198.04 51.1346L198.377 50.5939C198.83 49.8659 199.837 49.7389 200.457 50.3318L200.989 50.8417C202.882 52.6541 204.094 55.0625 204.422 57.6627L204.845 61.0224C205.172 63.6147 203.881 66.1512 201.599 67.4232V67.4232C201.454 67.5038 201.283 67.5226 201.125 67.475V67.475C198.81 66.7783 197.124 64.7836 196.821 62.3857L196.367 58.7792Z" fill="white"/>
<path d="M183.002 42.7557C180.343 41.1332 177.206 40.4746 174.119 40.8905L173.387 40.9891C172.402 41.1219 171.788 42.1276 172.121 43.0646L172.407 43.8704C173.424 46.7348 175.395 49.1623 177.99 50.7455L181.343 52.7911C183.93 54.3695 187.227 54.2102 189.658 52.4009V52.4009C189.812 52.2864 189.913 52.1139 189.938 51.9236V51.9236C190.302 49.1442 188.994 46.4116 186.601 44.9516L183.002 42.7557Z" fill="white"/>
<path d="M187.378 41.8136C187.028 39.1507 187.604 36.4484 189.01 34.1599L189.343 33.6174C189.792 32.887 190.799 32.7544 191.422 33.3439L191.957 33.8509C193.86 35.653 195.085 38.0547 195.427 40.653L195.869 44.0104C196.21 46.6008 194.933 49.1444 192.658 50.4289V50.4289C192.514 50.5102 192.342 50.53 192.183 50.4832V50.4832C189.865 49.7992 188.168 47.8137 187.853 45.4175L187.378 41.8136Z" fill="white"/>
<path d="M22.4351 71.7649C25.0957 70.1447 28.2325 69.4888 31.3193 69.9074L32.0512 70.0067C33.0364 70.1403 33.6492 71.1465 33.3157 72.0832L33.0289 72.8888C32.0094 75.7523 30.036 78.1781 27.4399 79.759L24.0855 81.8018C21.4973 83.3779 18.2003 83.2157 15.771 81.4043V81.4043C15.6172 81.2897 15.5158 81.1171 15.491 80.9268V80.9268C15.1299 78.1471 16.4403 75.4156 18.8344 73.9576L22.4351 71.7649Z" fill="white"/>
<path d="M18.0594 70.819C18.4121 68.1564 17.8383 65.4536 16.4343 63.1639L16.1015 62.6211C15.6533 61.8903 14.6463 61.7569 14.0234 62.3458L13.4876 62.8523C11.5831 64.6527 10.3558 67.0534 10.0117 69.6515L9.56696 73.0084C9.22383 75.5986 10.4986 78.1432 12.7728 79.4297V79.4297C12.9167 79.5111 13.0882 79.5311 13.2469 79.4844V79.4844C15.5655 78.8024 17.2646 76.8184 17.582 74.4225L18.0594 70.819Z" fill="white"/>
<path d="M30.1384 51.3999C32.7429 49.691 35.8558 48.9299 38.955 49.2442L39.6897 49.3188C40.6789 49.4191 41.3253 50.4041 41.0235 51.3515L40.764 52.1664C39.8415 55.0626 37.951 57.5534 35.4096 59.2209L32.1259 61.3755C29.5922 63.0379 26.2917 62.9869 23.8027 61.2584V61.2584C23.6451 61.1489 23.538 60.9799 23.5068 60.7905V60.7905C23.0522 58.0246 24.2699 55.2504 26.6135 53.7127L30.1384 51.3999Z" fill="white"/>
<path d="M25.7333 50.602C25.9961 47.929 25.3316 45.247 23.8513 43.006L23.5003 42.4747C23.0278 41.7594 22.0169 41.6599 21.4141 42.2695L20.8957 42.7938C19.053 44.6573 17.9073 47.098 17.6508 49.7062L17.3194 53.0762C17.0637 55.6765 18.4235 58.1767 20.7397 59.3858V59.3858C20.8863 59.4624 21.0583 59.4766 21.2154 59.4246V59.4246C23.5097 58.6649 25.1411 56.6248 25.3776 54.2195L25.7333 50.602Z" fill="white"/>
<path d="M39.2808 34.4803C41.4409 32.7455 44.1319 31.8063 46.9024 31.8205L47.5592 31.8239C48.4435 31.8284 49.0996 32.6453 48.9132 33.5098L48.7529 34.2532C48.1831 36.8959 46.7218 39.2621 44.614 40.955L41.8906 43.1423C39.7893 44.83 36.863 45.0661 34.5122 43.748V43.748C34.3634 43.6645 34.2541 43.524 34.2104 43.359V43.359C33.5722 40.9491 34.4137 38.3894 36.3574 36.8283L39.2808 34.4803Z" fill="white"/>
<path d="M35.313 34.1494C35.3179 31.7607 34.501 29.443 32.9995 27.5851L32.6435 27.1447C32.1642 26.5517 31.2608 26.5499 30.7791 27.1409L30.3648 27.6492C28.8923 29.4561 28.0861 31.7144 28.0813 34.0453L28.0752 37.057C28.0705 39.3808 29.4874 41.4783 31.6409 42.3513V42.3513C31.7773 42.4066 31.9308 42.4045 32.0653 42.3451V42.3451C34.0317 41.4769 35.3021 39.5318 35.3065 37.3823L35.313 34.1494Z" fill="white"/>
<path d="M54.6843 23.1627C56.8863 22.5882 59.2188 22.7886 61.2906 23.7301L61.7817 23.9533C62.443 24.2538 62.6603 25.0866 62.2301 25.6719L61.8601 26.1753C60.5451 27.9645 58.6547 29.2471 56.5061 29.8076L53.7299 30.532C51.5878 31.0909 49.3151 30.2846 47.996 28.5067V28.5067C47.9125 28.3942 47.8778 28.2521 47.9005 28.1138V28.1138C48.2319 26.093 49.7228 24.4572 51.7042 23.9403L54.6843 23.1627Z" fill="white"/>
<path d="M51.8215 21.5815C52.6278 19.7927 52.7943 17.781 52.2932 15.884L52.1743 15.4343C52.0144 14.8288 51.3378 14.5238 50.7782 14.805L50.2969 15.0468C48.5861 15.9063 47.223 17.328 46.4362 19.0734L45.4196 21.3287C44.6353 23.0689 44.9925 25.1171 46.3133 26.4951V26.4951C46.3969 26.5823 46.5126 26.6323 46.6335 26.633V26.633C48.399 26.6431 50.0048 25.612 50.7303 24.0024L51.8215 21.5815Z" fill="white"/>
<path d="M68.3775 16.2342C70.472 16.4772 72.4192 17.4331 73.8924 18.9417L74.2416 19.2993C74.7118 19.7808 74.62 20.573 74.052 20.934L73.5635 21.2446C71.8272 22.3484 69.7641 22.8215 67.7203 22.5844L65.0796 22.2781C63.042 22.0418 61.3499 20.5826 60.8075 18.6044V18.6044C60.7732 18.4792 60.7909 18.3448 60.8569 18.233V18.233C61.8214 16.5991 63.658 15.6868 65.5428 15.9054L68.3775 16.2342Z" fill="white"/>
<path d="M66.4359 13.9076C67.7326 12.6335 68.5517 10.952 68.7556 9.14548L68.804 8.71719C68.869 8.14057 68.3871 7.65013 67.8095 7.70509L67.3126 7.75235C65.5466 7.92036 63.8921 8.69066 62.6268 9.93398L60.9918 11.5405C59.7303 12.78 59.3513 14.6689 60.0294 16.3023V16.3023C60.0724 16.4057 60.1556 16.4877 60.2597 16.5289V16.5289C61.7811 17.1302 63.514 16.7787 64.6808 15.6321L66.4359 13.9076Z" fill="white"/>
<path d="M169.767 29.5208C167.268 28.6807 164.556 28.7256 162.087 29.648L161.501 29.8666C160.713 30.161 160.395 31.1061 160.846 31.8169L161.233 32.4283C162.61 34.6013 164.692 36.2347 167.13 37.0544L170.28 38.1136C172.711 38.9309 175.402 38.1809 177.069 36.2318V36.2318C177.174 36.1084 177.226 35.947 177.211 35.7853V35.7853C176.989 33.4234 175.397 31.4137 173.149 30.6578L169.767 29.5208Z" fill="white"/>
<path d="M173.202 27.9223C172.413 25.7906 172.382 23.4524 173.113 21.3001L173.286 20.7899C173.519 20.1029 174.325 19.8046 174.95 20.1743L175.487 20.4923C177.395 21.6224 178.857 23.3745 179.626 25.4547L180.621 28.1424C181.388 30.2162 180.811 32.5548 179.175 34.0416V34.0416C179.071 34.1357 178.933 34.1842 178.794 34.1754V34.1754C176.752 34.0457 174.979 32.7257 174.269 30.8074L173.202 27.9223Z" fill="white"/>
<path d="M155.849 18.1082C153.596 17.1165 151.07 16.93 148.695 17.58L148.132 17.7341C147.374 17.9416 146.999 18.7938 147.358 19.4928L147.667 20.0941C148.765 22.231 150.564 23.9255 152.762 24.8931L155.603 26.1435C157.795 27.1082 160.361 26.6372 162.076 24.9646V24.9646C162.184 24.8587 162.246 24.7129 162.245 24.5613V24.5613C162.238 22.346 160.926 20.3428 158.899 19.4504L155.849 18.1082Z" fill="white"/>
<path d="M159.178 16.9107C158.624 14.8616 158.792 12.6843 159.653 10.744L159.857 10.2841C160.132 9.66476 160.907 9.45519 161.456 9.85157L161.929 10.1925C163.609 11.4042 164.821 13.1569 165.361 15.1563L166.06 17.7398C166.599 19.7332 165.866 21.8597 164.218 23.1048V23.1048C164.114 23.1837 163.982 23.2172 163.853 23.1972V23.1972C161.965 22.9048 160.427 21.5278 159.928 19.6839L159.178 16.9107Z" fill="white"/>
<path d="M140.747 11.1938C138.603 11.048 136.474 11.6441 134.717 12.8822L134.3 13.1757C133.739 13.5709 133.684 14.3819 134.186 14.8494L134.618 15.2514C136.153 16.6805 138.133 17.5382 140.225 17.6804L142.929 17.8643C145.015 18.0062 146.982 16.8582 147.894 14.9764V14.9764C147.951 14.8573 147.959 14.7194 147.913 14.595V14.595C147.25 12.7781 145.579 11.5224 143.649 11.3911L140.747 11.1938Z" fill="white"/>
<path d="M143.126 9.22288C142.063 7.70477 141.555 5.8673 141.686 4.01879L141.717 3.58055C141.759 2.99054 142.333 2.58857 142.902 2.75103L143.391 2.89076C145.13 3.38741 146.645 4.46697 147.682 5.9483L149.022 7.86234C150.056 9.33916 150.085 11.3027 149.101 12.8137V12.8137C149.039 12.9094 148.941 12.9761 148.829 12.998V12.998C147.192 13.3179 145.521 12.6435 144.564 11.2775L143.126 9.22288Z" fill="white"/>
</svg>
