<svg width="524" height="372" viewBox="0 0 524 372" fill="none" xmlns="http://www.w3.org/2000/svg">
<rect width="524" height="372" fill="white"/>
<rect width="474" height="257" rx="10" fill="#8BB5AD"/>
<rect x="229" y="257" width="10" height="92" fill="#2D6057"/>
<rect x="108" y="349" width="259" height="10" fill="#2D6057"/>
<path d="M234 148C245.03 148 254 139.03 254 128C254 116.97 245.03 108 234 108C222.97 108 214 116.97 214 128C214 139.03 222.97 148 234 148ZM234 118C239.42 118 244 122.58 244 128C244 133.42 239.42 138 234 138C228.58 138 224 133.42 224 128C224 122.58 228.58 118 234 118Z" fill="#53847B"/>
<path d="M188.225 148.68L193.225 157.33C195.88 161.915 202.27 163.635 206.875 160.98L209.52 159.45C212.413 161.725 215.602 163.596 219 165.01V168C219 173.515 223.485 178 229 178H239C244.515 178 249 173.515 249 168V165.01C252.397 163.596 255.586 161.727 258.48 159.455L261.125 160.985C265.74 163.635 272.115 161.925 274.78 157.33L279.775 148.685C281.1 146.388 281.459 143.66 280.774 141.099C280.089 138.537 278.415 136.353 276.12 135.025L273.595 133.565C274.132 129.878 274.132 126.132 273.595 122.445L276.12 120.985C278.414 119.656 280.087 117.472 280.772 114.911C281.457 112.35 281.099 109.622 279.775 107.325L274.78 98.68C272.125 94.08 265.74 92.355 261.125 95.02L258.48 96.55C255.587 94.2745 252.398 92.404 249 90.99V88C249 82.485 244.515 78 239 78H229C223.485 78 219 82.485 219 88V90.99C215.603 92.4042 212.414 94.2729 209.52 96.545L206.875 95.015C202.255 92.36 195.875 94.08 193.22 98.675L188.225 107.32C186.9 109.616 186.541 112.345 187.226 114.906C187.911 117.468 189.585 119.652 191.88 120.98L194.405 122.44C193.866 126.125 193.866 129.87 194.405 133.555L191.88 135.015C189.586 136.345 187.913 138.53 187.227 141.092C186.542 143.654 186.901 146.382 188.225 148.68V148.68ZM204.855 134.89C204.29 132.637 204.003 130.323 204 128C204 125.69 204.29 123.37 204.85 121.11C205.114 120.057 205.027 118.946 204.603 117.946C204.179 116.947 203.441 116.112 202.5 115.57L196.885 112.32L201.875 103.675L207.6 106.985C208.534 107.525 209.617 107.748 210.688 107.62C211.759 107.492 212.76 107.02 213.54 106.275C216.923 103.058 221.002 100.664 225.46 99.28C226.484 98.9673 227.381 98.3341 228.018 97.4736C228.655 96.6131 229 95.5708 229 94.5V88H239V94.5C239 95.5708 239.345 96.6131 239.982 97.4736C240.619 98.3341 241.516 98.9673 242.54 99.28C246.997 100.666 251.076 103.06 254.46 106.275C255.241 107.019 256.241 107.49 257.312 107.618C258.383 107.746 259.466 107.524 260.4 106.985L266.12 103.68L271.12 112.325L265.5 115.57C264.56 116.113 263.822 116.947 263.398 117.947C262.974 118.946 262.887 120.057 263.15 121.11C263.71 123.37 264 125.69 264 128C264 130.305 263.71 132.625 263.145 134.89C262.883 135.944 262.97 137.055 263.395 138.054C263.82 139.054 264.559 139.888 265.5 140.43L271.115 143.675L266.125 152.32L260.4 149.015C259.467 148.474 258.383 148.251 257.312 148.379C256.24 148.507 255.24 148.979 254.46 149.725C251.077 152.942 246.998 155.336 242.54 156.72C241.516 157.033 240.619 157.666 239.982 158.526C239.345 159.387 239 160.429 239 161.5L239.01 168H229V161.5C229 160.429 228.655 159.387 228.018 158.526C227.381 157.666 226.484 157.033 225.46 156.72C221.003 155.334 216.924 152.94 213.54 149.725C212.762 148.977 211.76 148.504 210.688 148.376C209.616 148.249 208.532 148.475 207.6 149.02L201.88 152.33L196.88 143.685L202.5 140.43C203.441 139.888 204.18 139.054 204.605 138.054C205.03 137.055 205.117 135.944 204.855 134.89V134.89Z" fill="#2D6057"/>
<path d="M437.806 245.191C439.87 243.968 442.535 244.649 443.758 246.713L466.521 285.125H507.988C510.434 285.125 512.417 287.108 512.417 289.554V302.5C512.417 323.285 501.469 341.512 485.024 351.729H502.281C504.68 351.729 506.625 353.674 506.625 356.073C506.625 358.472 504.68 360.417 502.281 360.417H406.719C404.32 360.417 402.375 358.472 402.375 356.073C402.375 353.674 404.32 351.729 406.719 351.729H423.975C407.531 341.512 396.583 323.285 396.583 302.5V289.554C396.583 287.108 398.566 285.125 401.012 285.125H433.256L413.117 251.142C411.894 249.078 412.576 246.414 414.64 245.191C416.704 243.968 419.368 244.649 420.591 246.713L443.354 285.125H456.422L436.284 251.142C435.061 249.078 435.743 246.414 437.806 245.191ZM405.271 293.813V302.5C405.271 304.46 405.385 306.392 405.608 308.292H503.392C503.614 306.392 503.729 304.46 503.729 302.5V293.813H405.271ZM407.435 316.979C413.618 337.102 432.351 351.729 454.5 351.729C476.65 351.729 495.382 337.102 501.565 316.979H407.435Z" fill="#53847B"/>
<path d="M142.667 48L61.9167 129L142.667 210" stroke="#2D6057" stroke-width="2" stroke-linecap="round" stroke-linejoin="round"/>
<path d="M330.333 210L411.083 129L330.333 48" stroke="#2D6057" stroke-width="2" stroke-linecap="round" stroke-linejoin="round"/>
</svg>
