<svg width="129" height="117" viewBox="0 0 129 117" fill="none" xmlns="http://www.w3.org/2000/svg">
<path d="M20.75 89.75H14.5C11.1848 89.75 8.00537 88.433 5.66116 86.0888C3.31696 83.7446 2 80.5652 2 77.25V14.75C2 11.4348 3.31696 8.25537 5.66116 5.91116C8.00537 3.56696 11.1848 2.25 14.5 2.25H114.5C117.815 2.25 120.995 3.56696 123.339 5.91116C125.683 8.25537 127 11.4348 127 14.75V77.25C127 80.5652 125.683 83.7446 123.339 86.0888C120.995 88.433 117.815 89.75 114.5 89.75H108.25" stroke="#FFCC18" stroke-width="4" stroke-linecap="round" stroke-linejoin="round"/>
<path d="M64.5 77.25L95.75 114.75H33.25L64.5 77.25Z" stroke="#FFCC18" stroke-width="4" stroke-linecap="round" stroke-linejoin="round"/>
</svg>
