<svg width="136" height="130" viewBox="0 0 136 130" fill="none" xmlns="http://www.w3.org/2000/svg">
<path d="M102 46.5H108.25C114.88 46.5 121.239 49.1339 125.928 53.8223C130.616 58.5107 133.25 64.8696 133.25 71.5C133.25 78.1304 130.616 84.4893 125.928 89.1777C121.239 93.8661 114.88 96.5 108.25 96.5H102" stroke="#FFCC18" stroke-width="4" stroke-linecap="round" stroke-linejoin="round"/>
<path d="M2 46.5H102V102.75C102 109.38 99.3661 115.739 94.6777 120.428C89.9893 125.116 83.6304 127.75 77 127.75H27C20.3696 127.75 14.0107 125.116 9.32233 120.428C4.63392 115.739 2 109.38 2 102.75V46.5Z" stroke="#FFCC18" stroke-width="4" stroke-linecap="round" stroke-linejoin="round"/>
<path d="M27 2.75V21.5" stroke="#FFCC18" stroke-width="4" stroke-linecap="round" stroke-linejoin="round"/>
<path d="M52 2.75V21.5" stroke="#FFCC18" stroke-width="4" stroke-linecap="round" stroke-linejoin="round"/>
<path d="M77 2.75V21.5" stroke="#FFCC18" stroke-width="4" stroke-linecap="round" stroke-linejoin="round"/>
</svg>
